<?xml version="1.0" encoding="utf-8"?>
<!-- Generator: Adobe Illustrator 16.0.0, SVG Export Plug-In . SVG Version: 6.00 Build 0)  -->
<!DOCTYPE svg PUBLIC "-//W3C//DTD SVG 1.1//EN" "http://www.w3.org/Graphics/SVG/1.1/DTD/svg11.dtd">
<svg version="1.1" id="图层_1" xmlns="http://www.w3.org/2000/svg" xmlns:xlink="http://www.w3.org/1999/xlink" x="0px" y="0px"
	 width="286.502px" height="67.129px" viewBox="0 0 286.502 67.129" enable-background="new 0 0 286.502 67.129"
	 xml:space="preserve">
<path fill="#FFFFFF" d="M167.302,4.53c-0.398,1.7-0.8,3.5-1.3,5.4c-0.601,2-1.101,3.9-1.7,5.8s-1.1,3.6-1.699,5.1l3.399,1
	c0.601-1.3,1.2-2.9,1.899-4.8c0.601-1.8,1.301-3.7,2-5.7c0.601-2,1.301-3.9,1.801-5.7L167.302,4.53z"/>
<path fill="#FFFFFF" d="M169.703,24.63h-8.101V0.43c-2.699,0.1-4.301,1.6-4.899,4.6v19.5h-6.101c-2.601,0.5-4,2.2-4.199,5.1h9.398
	c-0.8,2.7-1.699,5.399-2.8,8.3c-1.101,2.8-2.3,5.5-3.601,7.9c-1.199,2.6-2.5,4.698-3.801,6.5c0.5,0.698,1,1.6,1.602,2.6
	c0.5,1.1,1,2,1.3,2.9c1.399-2.302,2.899-5,4.3-8.201c1.4-3.199,2.7-6.601,3.9-10.101v27.2c2.6-0.2,4.199-1.8,4.898-4.7v-24.1
	c0.801,1.3,1.5,2.7,2.301,4c0.699,1.399,1.399,2.7,2.101,3.899c0.601,1.301,1.101,2.301,1.399,3.101c1.899-2.7,2.5-5.101,1.801-6.9
	l0.1,0.101c-0.8-1.299-1.699-2.601-2.699-4c-1-1.5-2-2.799-2.899-4.101c-0.8-1.2-1.5-2.2-2.101-2.8v-1.6h3.801
	C167.802,29.13,169.203,27.43,169.703,24.63z"/>
<path fill="#FFFFFF" d="M150.403,16.83c0.3,1.9,0.6,3.5,0.699,5l4.101-1c-0.2-1.5-0.5-3.1-0.899-4.9c-0.4-1.8-0.9-3.7-1.5-5.6
	c-0.601-1.9-1.201-3.7-1.9-5.4l-3.699,0.9c0.6,1.7,1.199,3.5,1.699,5.4C149.502,13.13,150.002,15.03,150.403,16.83z"/>
<path fill="#FFFFFF" d="M207.103,10.229c2.5-0.4,3.801-1.8,4-4.1h-16.399v-5.9c-3.101-0.3-4.899,1.3-5.2,4.8v1.1h-11.699
	c-2.101,0.3-3.301,1.7-3.5,4.1h15.199v4.5h-9.9c-2,0.7-3.1,2-3.5,4h13.4v4.9h-13.4c-2.5,0.5-3.799,1.8-3.799,4.2h36.899
	c2.3-0.7,3.5-2.1,3.8-4.2h-18.3v-4.9h11.2c2.199-0.3,3.398-1.7,3.6-4h-14.8v-4.5H207.103z"/>
<path fill="#FFFFFF" d="M249.403,11.83c-0.801,0.2-1.4,0.4-2,0.6c-2.102,0.9-3.301,2.6-3.801,5c0,0.1,0,0.2,0,0.3v6.7l0,0v7.6
	c0,3.099,0,6.5-0.301,10.099c-0.199,3.701-0.699,7.301-1.398,10.899c-0.301-0.5-0.602-1.198-1-2c-0.301-0.8-0.602-1.5-0.801-2.198
	l-6,4.698v-30.6h-10.101c-2.601,0.4-4.101,2.2-4.601,5.2h9.801v26.2c-0.102,1.199-0.301,2.301-0.7,3.301
	c-0.399,0.898-0.8,1.8-1.399,2.5c-0.5,0.6-1,1.199-1.5,1.5c-0.101,1.199,0.199,1.898,0.899,2.398c0.7,0.4,1.3,0.801,2,1v0.102
	l0.101,0.199l0,0c0-0.101,0-0.101,0-0.199c0-0.102,0-0.102,0.101-0.102c0.3-0.5,0.8-1,1.601-1.8c0.799-0.7,2.1-1.8,3.899-3.3
	c1.7-1.4,4.3-3.5,7.5-6.2c-0.399,1.8-0.899,3.5-1.5,5.2c-0.5,1.699-1.2,3.199-2,4.699c0.7,0.301,1.399,0.801,2.2,1.601
	c0.898,0.7,1.5,1.3,2,1.899c1.8-3.399,3.199-7.199,4.1-11.299c1-4.201,1.6-8.302,1.9-12.4c0.3-4.1,0.5-7.9,0.5-11.3v-0.1h7.1
	c0.8,0.1,1.2,0.6,1.4,1.4v0.699c-0.102,3.701-0.301,6.701-0.301,9c-0.199,2.801-0.399,4.899-0.5,6.301
	c-0.199,1.3-0.5,2.199-0.699,2.6c-0.301,0.301-0.5,0.5-0.801,0.7c-0.199,0.101-0.601,0.101-1,0.101c-0.5,0-1.199,0-2.199,0
	s-2.102-0.101-3.301-0.301c0.399,0.7,0.699,1.5,0.899,2.301c0.2,0.899,0.3,1.699,0.399,2.399c1.199,0.101,2.5,0.101,3.601,0.101
	s2.101,0,2.8-0.101c0.801-0.101,1.602-0.3,2.102-0.601c0.6-0.299,1.199-0.799,1.699-1.5c0.399-0.601,0.801-1.799,1-3.5
	c0.301-1.799,0.5-4.5,0.699-8c0.102-1.601,0.2-3.299,0.2-5.299v-6c-0.399-2.5-1.7-4.2-3.899-4.9c-0.5-0.2-0.899-0.3-1.399-0.4h-7.8
	v-8.6c0.199-0.7,0.898-1.1,1.898-1.1h13.602c0.5,6.4,1.1,12.5,1.898,18.2c0.801,5.7,1.801,10.7,2.9,15.102
	c-1.602,2.5-3.4,4.898-5.301,7c-1.899,2.1-4,4-6.101,5.699c0.601,0.399,1.2,0.899,1.8,1.5c0.7,0.601,1.301,1.101,1.7,1.601
	c1.8-1.4,3.4-2.9,5.101-4.7c1.601-1.6,3.199-3.5,4.699-5.5c1.102,3.102,2.4,5.5,3.9,7.3c1.4,1.7,3.1,2.5,4.8,2.601
	c1.5,0,2.601-0.399,3.5-1.199c0.8-0.9,1.601-2.301,2.101-4.2c0.5-2,0.899-4.601,1.101-8c-0.601-0.2-1.3-0.7-2-1.101
	c-0.7-0.5-1.399-1-1.899-1.601c-0.101,3.802-0.399,6.7-0.699,8.4c-0.4,1.8-0.9,2.7-1.5,2.6c-1,0-2-0.899-3-2.6
	c-1-1.701-2-4.101-2.9-7.2c2.1-3.6,4.1-7.5,5.801-11.8c1.699-4.2,2.699-7.2,2.799-9.1c0.301-3.3-0.898-5.5-3.5-6.3
	c-0.699,3.8-1.6,7.4-2.799,10.8c-1.201,3.399-2.5,6.601-3.899,9.601c-0.802-3.7-1.5-7.9-2.101-12.4c-0.701-4.6-1.101-9.5-1.399-14.7
	h11.8c3.2-0.4,4.8-2.2,4.8-5.5h-16.899c-0.101-1.7-0.101-3.5-0.199-5.4c0-2,0-4,0-6.1c-3-0.1-4.7,1.4-5,4.5c0,0.3,0,0.9,0,1.6
	c0.1,1.9,0.199,3.7,0.199,5.4L249.403,11.83L249.403,11.83z"/>
<path fill="#FFFFFF" d="M232.203,13.729c1.3,1.4,2.399,2.7,3.3,3.8l3.7-3.9c-0.899-1.1-2-2.3-3.399-3.7
	c-1.301-1.3-2.801-2.7-4.301-4.1c-1.6-1.4-3.1-2.7-4.5-3.9l-3.5,3.4c1.4,1.3,2.9,2.6,4.4,4.1
	C229.403,10.83,230.802,12.33,232.203,13.729z"/>
<path fill="#FFFFFF" d="M279.403,11.03l3.8-2.2c-0.8-1.2-1.8-2.4-3.2-3.9c-1.4-1.4-2.7-2.7-4-4l-3.7,2.1c1.3,1.3,2.7,2.6,4,4.1
	C277.603,8.53,278.603,9.93,279.403,11.03z"/>
<path fill="#FFFFFF" d="M209.002,31.33h-31.399v34.6c2.5,0.1,4.199-1.301,5.101-4v-7.801h21.2v6.201
	c0,0.398-0.102,0.698-0.301,0.898l0,0c-0.101,0.102-0.199,0.102-0.199,0.102c-0.2,0.1-0.301,0.1-0.602,0.1h-0.1
	c-0.102,0-0.102,0-0.102,0h-3.898c-0.301,0.1-0.602,0.3-0.9,0.6c-0.5,0.4-0.699,1-0.699,1.602c0,0.699,0.199,1.199,0.699,1.6
	c0.2,0.2,0.4,0.4,0.602,0.5h5.199c1.199-0.1,2.101-0.3,2.899-0.6c0.899-0.4,1.601-1,1.899-1.7c0.399-0.8,0.601-1.8,0.601-3.101
	V31.33z M182.703,40.93v-5.4h21.2v5.4H182.703z M182.703,50.229v-5.398h21.2v5.398H182.703z"/>
<path fill="#FFFFFF" d="M28.603,44.331c2.3-4.5,4-9,5.1-13.8c2.9,8.4,6.7,15.599,11.5,21.8c4.7,6.198,10.6,11,17.6,14.299
	c1.7,0,2.9-0.5,3.7-1.399c0.1-0.2,0.2-0.3,0.3-0.399V61.53c-4.7-1.898-8.8-4.6-12.5-8.1c-3.7-3.4-6.9-7.4-9.5-12
	c-2.7-4.6-4.9-9.6-6.6-14.9h22.6c3-0.7,4.7-2.5,4.9-5.6h-30.1c0.5-3.8,0.8-7.5,0.8-11c0.2-3.5,0.3-6.8,0.3-9.7
	c-2.1-0.7-4.1,0.2-5.8,2.7c0,1.1-0.1,3.4-0.2,6.9c-0.1,3.6-0.4,7.3-0.9,11.1h-23c-2.9,0-4.5,1.8-4.9,5.6h27
	c-1,4.6-2.5,9.2-4.6,13.599c-2.2,4.5-5.2,8.601-9,12.399c-3.9,3.802-8.8,7.101-14.8,9.7c-0.7,1.602-0.7,2.8,0.2,3.5
	c0.8,0.8,2.1,1.102,3.9,0.9c5.8-2.7,10.8-6,14.7-9.801C23.203,53.029,26.302,48.831,28.603,44.331z"/>
<path fill="#FFFFFF" d="M82.002,5.93c-3.4,0.5-5.3,2.5-5.9,5.8v48.399c0.1,0.101,0.1,0.201,0.1,0.301c0.2,0.8,0.4,1.5,0.7,2.1
	c0.8,1.5,2,2.5,3.7,3c0.3,0.102,0.6,0.2,0.9,0.301c0.1,0,0.3,0,0.5,0.101h3.9v-0.101h47.7c3.4-0.699,5-2.399,4.8-5.199h-55.5
	c-0.9-0.2-1.3-0.9-1.3-1.9v-45.6c0-1.2,0.6-1.9,1.7-2.1h48.5c3.2-0.4,4.9-2.1,5-5.1L82.002,5.93L82.002,5.93z"/>
<path fill="#FFFFFF" d="M90.203,30.63c0.9-0.9,1.9-1.9,2.9-2.9c1-1.1,2-2.2,2.9-3.4h11.5v10.4h-17.9c-2.3,0.2-3.6,1.899-4,4.8h21.2
	c-0.5,1.9-1.5,3.801-3,5.7c-1.4,1.899-3.6,3.7-6.5,5.5c-2.9,1.8-6.7,3.3-11.4,4.7c-0.3,1.199,0,2.199,0.8,2.8
	c0.9,0.601,1.7,1,2.5,1.399c4.2-1.5,7.7-3,10.5-4.601c2.8-1.698,5.1-3.399,6.9-5.198c1.7-1.802,3-3.602,3.9-5.5
	c2.3,1.698,4.5,3.398,6.8,5.198c2.2,1.9,4.4,3.7,6.3,5.5c2,1.7,3.6,3.4,4.8,4.802c2.7-0.201,3.9-1.5,3.6-3.701
	c-1.4-1.5-3.3-3.199-5.5-5.101c-2.3-1.899-4.6-3.8-7.1-5.8c-2.5-1.898-4.9-3.7-7.2-5.3l-0.1,0.1l0.1-0.5h18.5
	c3.2-1.1,4.7-2.698,4.6-4.8h-22.5v-10.4h15c2.6-0.9,4-2.4,4.2-4.8h-32.9c0.5-0.9,1-1.9,1.5-2.8c0.4-1,0.9-1.9,1.3-2.9
	c-0.9-1.9-2.6-2.3-5.1-1.2c-1.2,3-2.7,5.8-4.7,8.4c-1.9,2.7-4.1,4.9-6.5,6.8c0,1.5,0.5,2.4,1.6,2.8
	C88.203,30.93,89.203,30.93,90.203,30.63z"/>
<path fill="#FFFFFF" d="M167.302,4.53c-0.398,1.7-0.8,3.5-1.3,5.4c-0.601,2-1.101,3.9-1.7,5.8s-1.1,3.6-1.699,5.1l3.399,1
	c0.601-1.3,1.2-2.9,1.899-4.8c0.601-1.8,1.301-3.7,2-5.7c0.601-2,1.301-3.9,1.801-5.7L167.302,4.53z"/>
<path fill="#FFFFFF" d="M169.703,24.63h-8.101V0.43c-2.699,0.1-4.301,1.6-4.899,4.6v19.5h-6.101c-2.601,0.5-4,2.2-4.199,5.1h9.398
	c-0.8,2.7-1.699,5.399-2.8,8.3c-1.101,2.8-2.3,5.5-3.601,7.9c-1.199,2.6-2.5,4.698-3.801,6.5c0.5,0.698,1,1.6,1.602,2.6
	c0.5,1.1,1,2,1.3,2.9c1.399-2.302,2.899-5,4.3-8.201c1.4-3.199,2.7-6.601,3.9-10.101v27.2c2.6-0.2,4.199-1.8,4.898-4.7v-24.1
	c0.801,1.3,1.5,2.7,2.301,4c0.699,1.399,1.399,2.7,2.101,3.899c0.601,1.301,1.101,2.301,1.399,3.101c1.899-2.7,2.5-5.101,1.801-6.9
	l0.1,0.101c-0.8-1.299-1.699-2.601-2.699-4c-1-1.5-2-2.799-2.899-4.101c-0.8-1.2-1.5-2.2-2.101-2.8v-1.6h3.801
	C167.802,29.13,169.203,27.43,169.703,24.63z"/>
<path fill="#FFFFFF" d="M150.403,16.83c0.3,1.9,0.6,3.5,0.699,5l4.101-1c-0.2-1.5-0.5-3.1-0.899-4.9c-0.4-1.8-0.9-3.7-1.5-5.6
	c-0.601-1.9-1.201-3.7-1.9-5.4l-3.699,0.9c0.6,1.7,1.199,3.5,1.699,5.4C149.502,13.13,150.002,15.03,150.403,16.83z"/>
<path fill="#FFFFFF" d="M207.103,10.229c2.5-0.4,3.801-1.8,4-4.1h-16.399v-5.9c-3.101-0.3-4.899,1.3-5.2,4.8v1.1h-11.699
	c-2.101,0.3-3.301,1.7-3.5,4.1h15.199v4.5h-9.9c-2,0.7-3.1,2-3.5,4h13.4v4.9h-13.4c-2.5,0.5-3.799,1.8-3.799,4.2h36.899
	c2.3-0.7,3.5-2.1,3.8-4.2h-18.3v-4.9h11.2c2.199-0.3,3.398-1.7,3.6-4h-14.8v-4.5H207.103z"/>
<path fill="#FFFFFF" d="M249.403,11.83c-0.801,0.2-1.4,0.4-2,0.6c-2.102,0.9-3.301,2.6-3.801,5c0,0.1,0,0.2,0,0.3v6.7l0,0v7.6
	c0,3.099,0,6.5-0.301,10.099c-0.199,3.701-0.699,7.301-1.398,10.899c-0.301-0.5-0.602-1.198-1-2c-0.301-0.8-0.602-1.5-0.801-2.198
	l-6,4.698v-30.6h-10.101c-2.601,0.4-4.101,2.2-4.601,5.2h9.801v26.2c-0.102,1.199-0.301,2.301-0.7,3.301
	c-0.399,0.898-0.8,1.8-1.399,2.5c-0.5,0.6-1,1.199-1.5,1.5c-0.101,1.199,0.199,1.898,0.899,2.398c0.7,0.4,1.3,0.801,2,1v0.102
	l0.101,0.199l0,0c0-0.101,0-0.101,0-0.199c0-0.102,0-0.102,0.101-0.102c0.3-0.5,0.8-1,1.601-1.8c0.799-0.7,2.1-1.8,3.899-3.3
	c1.7-1.4,4.3-3.5,7.5-6.2c-0.399,1.8-0.899,3.5-1.5,5.2c-0.5,1.699-1.2,3.199-2,4.699c0.7,0.301,1.399,0.801,2.2,1.601
	c0.898,0.7,1.5,1.3,2,1.899c1.8-3.399,3.199-7.199,4.1-11.299c1-4.201,1.6-8.302,1.9-12.4c0.3-4.1,0.5-7.9,0.5-11.3v-0.1h7.1
	c0.8,0.1,1.2,0.6,1.4,1.4v0.699c-0.102,3.701-0.301,6.701-0.301,9c-0.199,2.801-0.399,4.899-0.5,6.301
	c-0.199,1.3-0.5,2.199-0.699,2.6c-0.301,0.301-0.5,0.5-0.801,0.7c-0.199,0.101-0.601,0.101-1,0.101c-0.5,0-1.199,0-2.199,0
	s-2.102-0.101-3.301-0.301c0.399,0.7,0.699,1.5,0.899,2.301c0.2,0.899,0.3,1.699,0.399,2.399c1.199,0.101,2.5,0.101,3.601,0.101
	s2.101,0,2.8-0.101c0.801-0.101,1.602-0.3,2.102-0.601c0.6-0.299,1.199-0.799,1.699-1.5c0.399-0.601,0.801-1.799,1-3.5
	c0.301-1.799,0.5-4.5,0.699-8c0.102-1.601,0.2-3.299,0.2-5.299v-6c-0.399-2.5-1.7-4.2-3.899-4.9c-0.5-0.2-0.899-0.3-1.399-0.4h-7.8
	v-8.6c0.199-0.7,0.898-1.1,1.898-1.1h13.602c0.5,6.4,1.1,12.5,1.898,18.2c0.801,5.7,1.801,10.7,2.9,15.102
	c-1.602,2.5-3.4,4.898-5.301,7c-1.899,2.1-4,4-6.101,5.699c0.601,0.399,1.2,0.899,1.8,1.5c0.7,0.601,1.301,1.101,1.7,1.601
	c1.8-1.4,3.4-2.9,5.101-4.7c1.601-1.6,3.199-3.5,4.699-5.5c1.102,3.102,2.4,5.5,3.9,7.3c1.4,1.7,3.1,2.5,4.8,2.601
	c1.5,0,2.601-0.399,3.5-1.199c0.8-0.9,1.601-2.301,2.101-4.2c0.5-2,0.899-4.601,1.101-8c-0.601-0.2-1.3-0.7-2-1.101
	c-0.7-0.5-1.399-1-1.899-1.601c-0.101,3.802-0.399,6.7-0.699,8.4c-0.4,1.8-0.9,2.7-1.5,2.6c-1,0-2-0.899-3-2.6
	c-1-1.701-2-4.101-2.9-7.2c2.1-3.6,4.1-7.5,5.801-11.8c1.699-4.2,2.699-7.2,2.799-9.1c0.301-3.3-0.898-5.5-3.5-6.3
	c-0.699,3.8-1.6,7.4-2.799,10.8c-1.201,3.399-2.5,6.601-3.899,9.601c-0.802-3.7-1.5-7.9-2.101-12.4c-0.701-4.6-1.101-9.5-1.399-14.7
	h11.8c3.2-0.4,4.8-2.2,4.8-5.5h-16.899c-0.101-1.7-0.101-3.5-0.199-5.4c0-2,0-4,0-6.1c-3-0.1-4.7,1.4-5,4.5c0,0.3,0,0.9,0,1.6
	c0.1,1.9,0.199,3.7,0.199,5.4L249.403,11.83L249.403,11.83z"/>
<path fill="#FFFFFF" d="M232.203,13.729c1.3,1.4,2.399,2.7,3.3,3.8l3.7-3.9c-0.899-1.1-2-2.3-3.399-3.7
	c-1.301-1.3-2.801-2.7-4.301-4.1c-1.6-1.4-3.1-2.7-4.5-3.9l-3.5,3.4c1.4,1.3,2.9,2.6,4.4,4.1
	C229.403,10.83,230.802,12.33,232.203,13.729z"/>
<path fill="#FFFFFF" d="M279.403,11.03l3.8-2.2c-0.8-1.2-1.8-2.4-3.2-3.9c-1.4-1.4-2.7-2.7-4-4l-3.7,2.1c1.3,1.3,2.7,2.6,4,4.1
	C277.603,8.53,278.603,9.93,279.403,11.03z"/>
<path fill="#FFFFFF" d="M209.002,31.33h-31.399v34.6c2.5,0.1,4.199-1.301,5.101-4v-7.801h21.2v6.201
	c0,0.398-0.102,0.698-0.301,0.898l0,0c-0.101,0.102-0.199,0.102-0.199,0.102c-0.2,0.1-0.301,0.1-0.602,0.1h-0.1
	c-0.102,0-0.102,0-0.102,0h-3.898c-0.301,0.1-0.602,0.3-0.9,0.6c-0.5,0.4-0.699,1-0.699,1.602c0,0.699,0.199,1.199,0.699,1.6
	c0.2,0.2,0.4,0.4,0.602,0.5h5.199c1.199-0.1,2.101-0.3,2.899-0.6c0.899-0.4,1.601-1,1.899-1.7c0.399-0.8,0.601-1.8,0.601-3.101
	V31.33z M182.703,40.93v-5.4h21.2v5.4H182.703z M182.703,50.229v-5.398h21.2v5.398H182.703z"/>
<path fill="#FFFFFF" d="M28.603,44.331c2.3-4.5,4-9,5.1-13.8c2.9,8.4,6.7,15.599,11.5,21.8c4.7,6.198,10.6,11,17.6,14.299
	c1.7,0,2.9-0.5,3.7-1.399c0.1-0.2,0.2-0.3,0.3-0.399V61.53c-4.7-1.898-8.8-4.6-12.5-8.1c-3.7-3.4-6.9-7.4-9.5-12
	c-2.7-4.6-4.9-9.6-6.6-14.9h22.6c3-0.7,4.7-2.5,4.9-5.6h-30.1c0.5-3.8,0.8-7.5,0.8-11c0.2-3.5,0.3-6.8,0.3-9.7
	c-2.1-0.7-4.1,0.2-5.8,2.7c0,1.1-0.1,3.4-0.2,6.9c-0.1,3.6-0.4,7.3-0.9,11.1h-23c-2.9,0-4.5,1.8-4.9,5.6h27
	c-1,4.6-2.5,9.2-4.6,13.599c-2.2,4.5-5.2,8.601-9,12.399c-3.9,3.802-8.8,7.101-14.8,9.7c-0.7,1.602-0.7,2.8,0.2,3.5
	c0.8,0.8,2.1,1.102,3.9,0.9c5.8-2.7,10.8-6,14.7-9.801C23.203,53.029,26.302,48.831,28.603,44.331z"/>
<path fill="#FFFFFF" d="M82.002,5.93c-3.4,0.5-5.3,2.5-5.9,5.8v48.399c0.1,0.101,0.1,0.201,0.1,0.301c0.2,0.8,0.4,1.5,0.7,2.1
	c0.8,1.5,2,2.5,3.7,3c0.3,0.102,0.6,0.2,0.9,0.301c0.1,0,0.3,0,0.5,0.101h3.9v-0.101h47.7c3.4-0.699,5-2.399,4.8-5.199h-55.5
	c-0.9-0.2-1.3-0.9-1.3-1.9v-45.6c0-1.2,0.6-1.9,1.7-2.1h48.5c3.2-0.4,4.9-2.1,5-5.1L82.002,5.93L82.002,5.93z"/>
<path fill="#FFFFFF" d="M90.203,30.63c0.9-0.9,1.9-1.9,2.9-2.9c1-1.1,2-2.2,2.9-3.4h11.5v10.4h-17.9c-2.3,0.2-3.6,1.899-4,4.8h21.2
	c-0.5,1.9-1.5,3.801-3,5.7c-1.4,1.899-3.6,3.7-6.5,5.5c-2.9,1.8-6.7,3.3-11.4,4.7c-0.3,1.199,0,2.199,0.8,2.8
	c0.9,0.601,1.7,1,2.5,1.399c4.2-1.5,7.7-3,10.5-4.601c2.8-1.698,5.1-3.399,6.9-5.198c1.7-1.802,3-3.602,3.9-5.5
	c2.3,1.698,4.5,3.398,6.8,5.198c2.2,1.9,4.4,3.7,6.3,5.5c2,1.7,3.6,3.4,4.8,4.802c2.7-0.201,3.9-1.5,3.6-3.701
	c-1.4-1.5-3.3-3.199-5.5-5.101c-2.3-1.899-4.6-3.8-7.1-5.8c-2.5-1.898-4.9-3.7-7.2-5.3l-0.1,0.1l0.1-0.5h18.5
	c3.2-1.1,4.7-2.698,4.6-4.8h-22.5v-10.4h15c2.6-0.9,4-2.4,4.2-4.8h-32.9c0.5-0.9,1-1.9,1.5-2.8c0.4-1,0.9-1.9,1.3-2.9
	c-0.9-1.9-2.6-2.3-5.1-1.2c-1.2,3-2.7,5.8-4.7,8.4c-1.9,2.7-4.1,4.9-6.5,6.8c0,1.5,0.5,2.4,1.6,2.8
	C88.203,30.93,89.203,30.93,90.203,30.63z"/>
</svg>
