<?xml version="1.0" encoding="utf-8"?>
<!-- Generator: Adobe Illustrator 16.0.0, SVG Export Plug-In . SVG Version: 6.00 Build 0)  -->
<!DOCTYPE svg PUBLIC "-//W3C//DTD SVG 1.1//EN" "http://www.w3.org/Graphics/SVG/1.1/DTD/svg11.dtd">
<svg version="1.1" id="图层_1" xmlns="http://www.w3.org/2000/svg" xmlns:xlink="http://www.w3.org/1999/xlink" x="0px" y="0px"
	 width="534.801px" height="452.125px" viewBox="31.503 29.265 534.801 452.125"
	 enable-background="new 31.503 29.265 534.801 452.125" xml:space="preserve">
<g>
	<path fill="#FFFFFF" d="M259.535,120.59c-6.825,0-12.752,5.966-12.752,12.377c0,6.411,5.927,12.377,12.752,12.377
		c6.825,0,12.001-5.966,12.001-12.377C271.536,126.556,266.36,120.59,259.535,120.59z"/>
	<path fill="#FFFFFF" d="M228.031,143.093c-6.825,0-12.752,5.966-12.752,12.376c0,6.411,5.927,12.377,12.752,12.377
		c6.825,0,12.001-5.966,12.001-12.377C240.032,149.059,234.855,143.093,228.031,143.093z"/>
	<path fill="#FFFFFF" d="M299.291,112.339c-6.825,0-12.751,5.966-12.751,12.377c0,6.411,5.927,12.376,12.751,12.376
		c6.824,0,12.002-5.966,12.002-12.376C311.292,118.305,306.115,112.339,299.291,112.339z"/>
	<path fill="#FFFFFF" d="M339.796,119.84c-6.824,0-12.752,5.966-12.752,12.377c0,6.411,5.928,12.376,12.752,12.376
		s12.002-5.966,12.002-12.376C351.798,125.806,346.621,119.84,339.796,119.84z"/>
	<path fill="#FFFFFF" d="M371.3,143.093c-6.823,0-12.752,5.966-12.752,12.376c0,6.411,5.929,12.377,12.752,12.377
		c6.824,0,12.003-5.966,12.003-12.377C383.303,149.059,378.125,143.093,371.3,143.093z"/>
</g>
<g>
	<path fill="#FFFFFF" d="M366.955,280.631c-29.646,17.376-57.646,52.063-67.377,83.021c-9.081-27.313-34.781-63.277-68.125-83.021
		c38.798,64.887,43.4,136.158,8.235,200.76c39.924,0,79.859,0,119.781,0c-8.953-17.631-15.988-35.117-20.961-56.604
		c-9.536-41.211,1.664-87.753,14.225-116.984C357.473,298.745,362.214,289.687,366.955,280.631z"/>
	<path fill="#FFFFFF" d="M558.607,164.401c-18.154-43.293-54.283-70.461-116.787-69.436
		c-45.383-47.064-91.281-66.815-157.215-64.152c-21.989,2.537-25.617,3.493-38.181,6.792c-35.065,11.102-67.849,31.069-89.088,57.36
		c-61.752-3.417-97.324,27.358-116.788,67.926c-29.123,70.893,16.343,142.553,75.613,151.702
		c65.064,6.597,110.709-67.404,77.11-113.21c-62.238-57.322-113.645,43.817-59.143,49.813c-6.387-12.361,0.108-26.688,16.47-24.906
		c13.625,2.633,15.96,21.746,8.983,33.208c-21.719,35.681-70.62,5.312-83.848-16.604C38.227,180.757,96.564,96.94,168.565,121.382
		c47.508-64.916,150.319-91.567,226.838-33.208c11.202,8.233,26.853,18.719,32.938,31.699c4.762-0.455,15.07-1.438,22.461-2.264
		c11.148-1.739,25.016,2.01,32.939,5.283c48.451,20.014,67.547,84.708,30.693,131.324c-16.133,20.406-64.57,32.479-77.857,0.755
		c-5.689-13.581,2.299-32.09,17.967-28.68c11.109,2.417,14.568,15.337,9.732,24.906c55.469-9.155,0.643-105.123-58.395-50.567
		c-36.01,50.155,14.709,121.939,76.361,113.965C540.605,305.917,584.742,234.402,558.607,164.401z"/>
</g>
<path fill="#FFFFFF" stroke="#FFFFFF" stroke-miterlimit="10" d="M544.664,67.615c-0.813-3.662-2.113-5.827-4.711-6.658v-0.334
	c3.088-0.998,5.521-3.163,5.521-6.491c0-2.665-1.137-4.662-2.762-5.827c-1.785-1.333-4.061-2.163-9.096-2.163
	c-4.385,0-7.799,0.499-10.234,0.831v27.301h6.172V63.452h2.924c3.412,0,5.037,1.332,5.525,4.163c0.813,3.33,1.299,5.66,2.109,6.658
	h6.5C546.125,73.275,545.476,71.776,544.664,67.615z M532.642,58.959h-2.922v-7.823c0.648-0.167,1.785-0.334,3.41-0.334
	c3.898,0,5.688,1.664,5.688,4.161C538.816,57.794,536.054,58.959,532.642,58.959z"/>
<ellipse fill="none" stroke="#FFFFFF" stroke-width="6" stroke-miterlimit="10" cx="534.009" cy="61.236" rx="29.01" ry="28.971"/>
</svg>
